<svg xmlns="http://www.w3.org/2000/svg" xmlns:xlink="http://www.w3.org/1999/xlink" height="100x" data-name="Camada 1" viewBox="0 0 789.2 836.84"><defs><linearGradient id="a" x1="485.69" y1="772.41" x2="485.69" y2="681.41" gradientUnits="userSpaceOnUse"><stop offset="0" stop-color="#fab98f"/><stop offset="1" stop-color="#fe9e5e"/></linearGradient><linearGradient id="c" x1="379.58" y1="610.19" x2="568.86" y2="265.42" xlink:href="#a"/><clipPath id="b" transform="translate(-102.74 -113.64)"><path d="M203.83 337.23a364.1 364.1 0 0 0-72.48 218.59c0 202.11 163.88 366 366 366s366-163.94 366-366a364 364 0 0 0-69.45-214.45c-13.45-129.11-173.39-242.2-295.42-242.2-120.12 0-281.94 33.03-294.65 238.06Z" style="fill:none"/></clipPath></defs><path d="M102.74 555.82c0 217.91 176.69 394.66 394.6 394.66s394.6-176.75 394.6-394.66-176.69-394.59-394.6-394.59S102.74 338 102.74 555.82Z" transform="translate(-102.74 -113.64)" style="fill:#ff9893"/><path d="M131.35 555.82c0 202.11 163.88 366 366 366s366-163.94 366-366-163.88-366-366-366-366 163.95-366 366Z" transform="translate(-102.74 -113.64)" style="fill:#fff"/><g style="clip-path:url(#b)"><path d="M239.36 635.34c45.7-173.15-82.56-296.63 35.53-437.11 115.45-137.33 316.22-88 348.92 10.43 0 0 98.93-15.81 130.19 188.6 15.27 99.81-12.49 210.76 24 285.58 61.32 129.86 133.74 147.48 86.16 206.63-39.32 48.88-436 32.4-574.56 24.23-101.94-42.26-81.28-160.7-50.24-278.36Z" transform="translate(-102.74 -113.64)" style="fill:#383d47"/><path d="M268.05 901.2c34.88-98.68 128.85-169.46 239.31-169.87v-.06h.83v.06c110.56.41 204.48 71.19 239.31 169.87 3.56 10.08 1.86 31.26-24.23 31.26H292.39c-26.09 0-27.85-21.18-24.34-31.26Z" transform="translate(-102.74 -113.64)" style="fill:#666"/><path d="M547.61 656.62s-5.61 67.38 7.44 99.2c0 0-97.44 84.37-138.72 30 0 0 18.13-41.12 12.81-86.07s118.47-43.13 118.47-43.13Z" transform="translate(-102.74 -113.64)" style="fill:url(#a)"/><path d="M305.15 361.67c124.25 22.48 259-59.18 259-59.18s26.7 170.2 68.85 231.07c-37.3 91.49-120.48 173-196.33 168.38-81.94-5-143.47-116.89-147-263.51-.73-27.9 4.07-66.55 13.07-77.07.86.1 1.53.26 2.41.31Z" transform="translate(-102.74 -113.64)" style="fill:url(#c)"/></g></svg>