<svg xmlns="http://www.w3.org/2000/svg" xmlns:xlink="http://www.w3.org/1999/xlink" height="95" id="Camada_1" class="svg__masc" viewBox="0 0 789.19 896.99"><defs><linearGradient id="linear-gradient" x1="435.23" y1="717.6" x2="568.4" y2="717.6" gradientUnits="userSpaceOnUse"><stop offset="0" stop-color="#fab98f"/><stop offset="1" stop-color="#fe9e5e"/></linearGradient><linearGradient id="linear-gradient-2" x1="431.24" y1="195.05" x2="231.08" y2="626.5" xlink:href="#linear-gradient"/><linearGradient id="linear-gradient-3" x1="582.96" y1="265.43" x2="382.78" y2="696.92" xlink:href="#linear-gradient"/><clipPath id="clip-path" transform="translate(-102.16 -54.53)"><path d="M736.72 281.92a364.06 364.06 0 0 1 125 275c0 201.5-163.42 365-365 365s-365-163.45-365-365a363.86 363.86 0 0 1 112.83-263.8C172.78 106.75 399-13 496.76-13 588.63-13 808 119.76 736.72 281.92Z" style="fill:none"/></clipPath></defs><g id="GENERO"><path d="M891.35 556.92c0 217.87-176.69 394.6-394.59 394.6s-394.6-176.73-394.6-394.6 176.68-394.57 394.6-394.57S891.35 339 891.35 556.92Z" transform="translate(-102.16 -54.53)" style="fill:#666"/><path d="M861.71 556.92c0 201.5-163.42 365-365 365s-365-163.45-365-365S295.22 192 496.76 192s364.95 163.38 364.95 364.92Z" transform="translate(-102.16 -60)" style="fill:#fff"/><g style="clip-path:url(#clip-path)"><path d="M735.79 890.9c-34.74-98.42-128.46-169-238.62-169.39h-.82c-110.28.43-203.89 71-238.64 169.39-3.53 10-1.79 31.17 24.17 31.17h429.7c25.95 0 27.79-21.15 24.21-31.17Z" transform="translate(-102.16 -54.53)" style="fill:#666"/><path d="M568.4 725.31c0 28.62-17.19 70.76-53.87 70.76l-10.1.68c-36.82 0-69.2-42.82-69.2-71.44v-35.15c0-28.57 29.83-51.72 66.65-51.72 36.67 0 66.52 23.15 66.52 51.72Z" transform="translate(-102.16 -54.53)" style="fill:url(#linear-gradient)"/><path class="cls-7" d="M281.12 333.33s14.71 221 74.6 272.16l-8.69-234-19.93-78Z" transform="translate(-102.16 -54.53)"/><path d="M371.45 475.73c0 27.9-39 50.48-39 50.48-28 0-59.27-24.81-62.38-69.47l-4-48.82c0-28 10.47-49.51 54.78-44.9a50.71 50.71 0 0 1 50.68 50.7Z" transform="translate(-102.16 -54.53)" style="fill:url(#linear-gradient-2)"/><path d="M697.16 488.39C697.16 588.27 630 713 530.28 713c-99.85 0-194.49-91.71-194.49-191.59V311.26a180.62 180.62 0 0 1 180.69-180.69c99.74 0 180.68 30.12 180.68 129.9Z" transform="translate(-102.16 -54.53)" style="fill:url(#linear-gradient-3)"/><path class="cls-7" d="M691.24 545.27c-4.5 21.46-20.54 21.78-27.19 9.84-25.34-45.53-48.75-56.59-105.87-56.59-80.74 0-92.29 70.13-133.89 70.13-41.8 0-62.49-58.43-62.49-78.85V423h-26l-2.66 75.51c0 211.88 161.27 234.39 213.19 227.54 113.13-16.94 143.8-131.43 143-147.58-.03-1.21 2.21-32.2 1.91-33.2Zm-128 93.67c-70.2 3.86-87.07-40.09-97.39-62.48 0 0 36.28-44.27 100.05-44.27S654.24 570 654.24 570s-20.85 65-90.96 68.94Z" transform="translate(-102.16 -54.53)"/><path class="cls-7" d="M462.32 55.23c-103.93 5.22-117.64 72.69-117.64 72.69-120.59 70.57-65.4 204.7-59.94 212.27 11.9-7.29 48.49 19.18 51.92 26.64 1.28 3.07-1.18 64.54-1.18 64.54l21.93 14.08c2.55 10.47 14.36-41.65 9.24-90.09-12.82-122.92 103-121 165.67-122.35 60.6-1.44 105.51 11.93 163.93 20.58C792 235.54 736.2 41.47 462.32 55.23Z" transform="translate(-102.16 -54.53)"/></g></g></svg>